<svg width="29" height="108" viewBox="0 0 29 108" fill="none" xmlns="http://www.w3.org/2000/svg">
<path d="M6.70768 3.41932C6.00415 2.9819 5.78843 2.05697 6.22585 1.35344C6.66327 0.649914 7.58819 0.434187 8.29172 0.871602L6.70768 3.41932ZM11.0321 107.817C10.251 108.093 9.39398 107.684 9.11774 106.903L4.61619 94.1752C4.33995 93.3942 4.74915 92.5371 5.53017 92.2609C6.31118 91.9846 7.16825 92.3939 7.44449 93.1749L11.4459 104.488L22.7591 100.487C23.5401 100.21 24.3972 100.62 24.6734 101.401C24.9497 102.182 24.5404 103.039 23.7594 103.315L11.0321 107.817ZM7.4997 2.14546C8.29172 0.871602 8.29282 0.872292 8.29396 0.872999C8.29439 0.873271 8.29556 0.874004 8.29641 0.874532C8.29812 0.875605 8.29997 0.876763 8.30196 0.878021C8.30594 0.880531 8.31048 0.883413 8.31558 0.886683C8.32579 0.893222 8.33823 0.901288 8.35286 0.910939C8.38213 0.930241 8.42016 0.955891 8.4666 0.988355C8.55949 1.05328 8.68596 1.1454 8.84321 1.26844C9.15776 1.51457 9.59498 1.88404 10.1325 2.40644C11.2078 3.45155 12.6816 5.10597 14.3764 7.60501C17.7656 12.6024 22.0344 20.9706 25.7754 34.5938L22.8825 35.3882C19.2119 22.0213 15.066 13.9667 11.8936 9.28888C10.3075 6.95029 8.96368 5.45397 8.04157 4.55775C7.58035 4.10948 7.22391 3.81063 6.99448 3.63112C6.87974 3.54133 6.79664 3.48129 6.74795 3.44727C6.72361 3.43025 6.70785 3.41973 6.70103 3.41522C6.69762 3.41297 6.69644 3.41223 6.69753 3.41293C6.69808 3.41328 6.6992 3.41399 6.70089 3.41506C6.70173 3.41559 6.70272 3.41622 6.70385 3.41693C6.70442 3.41728 6.70538 3.41788 6.70566 3.41806C6.70665 3.41867 6.70768 3.41932 7.4997 2.14546ZM25.7754 34.5938C29.6034 48.5341 26.028 66.7507 21.6456 81.2519C19.4407 88.5478 17.0038 94.9896 15.1186 99.6069C14.1757 101.916 13.3698 103.772 12.7986 105.052C12.5129 105.692 12.2859 106.189 12.1297 106.527C12.0516 106.696 11.9912 106.825 11.95 106.912C11.9294 106.956 11.9136 106.99 11.9028 107.012C11.8974 107.024 11.8932 107.033 11.8903 107.039C11.8889 107.042 11.8878 107.044 11.887 107.046C11.8866 107.047 11.8862 107.047 11.886 107.048C11.8857 107.048 11.8855 107.049 10.5319 106.402C9.17826 105.756 9.17822 105.756 9.17827 105.756C9.17839 105.756 9.17851 105.756 9.17876 105.755C9.17924 105.754 9.18005 105.752 9.18117 105.75C9.18342 105.745 9.18694 105.738 9.1917 105.728C9.20123 105.708 9.21574 105.677 9.23504 105.636C9.27365 105.554 9.33142 105.43 9.40683 105.267C9.55766 104.941 9.77906 104.457 10.0589 103.83C10.6186 102.575 11.4117 100.75 12.3412 98.4729C14.201 93.9177 16.6031 87.5672 18.7739 80.3841C23.1429 65.9271 26.466 48.438 22.8825 35.3882L25.7754 34.5938Z" fill="#FA478A"/>
</svg>
