<svg width="3012" height="730" viewBox="0 0 3012 730" fill="none" xmlns="http://www.w3.org/2000/svg">
<mask id="path-1-inside-1" fill="white">
<path d="M20.3709 729.902C20.3709 729.902 20.6748 729.589 21.4011 728.98C32.9417 710.939 83.8139 432.381 8.22494 247.532C-182.641 -219.222 3011.7 117.408 3011.7 117.408L2911.42 302.13C2707.49 542.152 1436.57 471.648 1123.42 507.079C180.374 613.782 34.2974 718.153 21.4011 728.98C21.0105 729.59 20.665 729.902 20.3709 729.902Z"/>
</mask>
<path d="M20.3709 729.902L-697.174 33.3903C-977.003 321.669 -1057.14 749.424 -900.637 1119.45C-744.136 1489.47 -381.386 1729.9 20.3709 1729.9L20.3709 729.902ZM1123.42 507.079L1235.85 1500.74L1123.42 507.079ZM2911.42 302.13L3673.5 949.612C3718.21 896.999 3757.34 839.897 3790.28 779.222L2911.42 302.13ZM3011.7 117.408L3890.55 594.5C4049.86 301.033 4052.18 -52.5872 3896.73 -348.118C3741.29 -643.649 3448.58 -842.089 3116.5 -877.085L3011.7 117.408ZM8.22494 247.532L933.826 -130.968L8.22494 247.532ZM20.3709 729.902C737.916 1426.41 737.841 1426.49 737.766 1426.57C737.741 1426.6 737.665 1426.67 737.615 1426.72C737.515 1426.83 737.415 1426.93 737.314 1427.03C737.114 1427.24 736.914 1427.45 736.713 1427.65C736.312 1428.06 735.912 1428.47 735.512 1428.88C734.711 1429.7 733.912 1430.52 733.113 1431.33C731.516 1432.95 729.922 1434.56 728.333 1436.15C725.154 1439.34 721.991 1442.47 718.846 1445.54C712.556 1451.67 706.332 1457.58 700.191 1463.27C687.917 1474.64 675.93 1485.17 664.354 1494.89L-621.552 -36.9263C-633.854 -26.599 -646.356 -15.6133 -658.964 -3.93425C-665.271 1.90889 -671.617 7.93607 -677.986 14.1518C-681.171 17.2602 -684.364 20.4169 -687.562 23.6227C-689.161 25.2257 -690.762 26.841 -692.364 28.4689C-693.165 29.2828 -693.966 30.0999 -694.768 30.9201C-695.169 31.3302 -695.57 31.7411 -695.971 32.1528C-696.171 32.3587 -696.372 32.5647 -696.572 32.771C-696.673 32.8741 -696.773 32.9773 -696.873 33.0805C-696.923 33.1321 -696.999 33.2095 -697.024 33.2353C-697.099 33.3128 -697.174 33.3903 20.3709 729.902ZM664.373 1494.87C567.749 1575.99 484.639 1613.46 460.671 1623.75C432.415 1635.87 431.301 1633.29 476.52 1621.47C568.566 1597.41 788.993 1551.3 1235.85 1500.74L1010.99 -486.58C514.802 -430.438 190.667 -371.011 -29.3114 -313.505C-218.719 -263.991 -438.556 -190.553 -621.57 -36.9105L664.373 1494.87ZM1235.85 1500.74C1231.05 1501.28 1250.04 1499.33 1311.44 1497.51C1366.87 1495.86 1434.84 1494.85 1518.99 1493.78C1680.56 1491.72 1892.27 1489.59 2102.29 1480.36C2306.92 1471.37 2548.34 1454.31 2768.5 1414.38C2878.1 1394.5 3012.69 1363.75 3147.93 1311.72C3264.99 1266.68 3489.24 1166.49 3673.5 949.612L2149.34 -345.352C2282.62 -502.224 2422.55 -552.117 2429.84 -554.924C2455.33 -564.729 2454.73 -561.34 2411.6 -553.519C2326.32 -538.052 2192.21 -525.521 2014.47 -517.709C1842.12 -510.134 1664.64 -508.241 1493.47 -506.057C1352.49 -504.258 1151.72 -502.504 1010.99 -486.58L1235.85 1500.74ZM3790.28 779.222L3890.55 594.5L2132.85 -359.684L2032.57 -174.962L3790.28 779.222ZM3011.7 117.408C3116.5 -877.085 3116.42 -877.093 3116.33 -877.103C3116.29 -877.108 3116.18 -877.119 3116.09 -877.129C3115.9 -877.148 3115.66 -877.173 3115.38 -877.203C3114.81 -877.263 3114.05 -877.342 3113.1 -877.442C3111.19 -877.64 3108.53 -877.917 3105.12 -878.268C3098.32 -878.969 3088.57 -879.967 3076.08 -881.225C3051.1 -883.741 3015.11 -887.303 2969.74 -891.629C2879.06 -900.276 2750.52 -912.011 2597.14 -924.565C2292.09 -949.532 1881.25 -978.362 1471.69 -992.008C1076.35 -1005.18 628.58 -1006.44 272.963 -961.99C117.208 -942.521 -140.119 -901.876 -374.243 -781.677C-492.462 -720.984 -713.716 -585.61 -863.062 -317.558C-1042.04 3.67538 -1029.46 351.931 -917.377 626.031L933.826 -130.968C1022.05 84.7878 1037.22 380.976 884.066 655.861C760.542 877.566 588.345 972.311 539.206 997.539C443.239 1046.81 404.155 1037.18 521.029 1022.57C710.671 998.861 1025.7 994.242 1405.09 1006.88C1770.25 1019.05 2146.07 1045.21 2433.99 1068.77C2577.1 1080.48 2696.63 1091.4 2779.89 1099.34C2821.49 1103.31 2853.95 1106.52 2875.67 1108.71C2886.52 1109.8 2894.69 1110.64 2899.96 1111.18C2902.6 1111.45 2904.51 1111.65 2905.68 1111.77C2906.26 1111.83 2906.65 1111.88 2906.86 1111.9C2906.96 1111.91 2907.01 1111.91 2907.02 1111.91C2907.03 1111.91 2906.99 1111.91 2907 1111.91C2906.95 1111.91 2906.9 1111.9 3011.7 117.408ZM-917.377 626.031C-944.364 560.034 -949.472 514.347 -950.378 505.99C-951.644 494.319 -950.868 492.86 -951.286 501.27C-951.673 509.084 -952.501 513.469 -951.784 509.126C-951.544 507.675 -949.591 495.717 -944.71 475.541C-942.489 466.362 -937.148 444.97 -928.11 416.831C-923.62 402.851 -915.557 378.848 -903.554 349.374C-894.803 327.885 -868.492 264.371 -820.991 190.114L863.793 1267.85C941.613 1146.19 975.07 1031.58 976.081 1028.43C987.095 994.138 994.638 964.731 999.207 945.848C1008.78 906.262 1016.01 868.138 1021.46 835.148C1032.6 767.724 1041.93 687.534 1046.26 600.347C1053.51 454.147 1054.38 163.842 933.826 -130.968L-917.377 626.031ZM-820.98 190.097C-797.117 152.795 -741.166 69.9041 -647.157 -14.4851C-566.16 -87.1941 -335.639 -270.098 20.3709 -270.098V1729.9C376.675 1729.9 607.516 1546.84 688.857 1473.82C783.21 1389.13 839.529 1305.77 863.782 1267.86L-820.98 190.097Z" fill="#2F80ED" fill-opacity="0.1" mask="url(#path-1-inside-1)"/>
</svg>
