<svg width="2562" height="705" viewBox="0 0 2562 705" fill="none" xmlns="http://www.w3.org/2000/svg">
<mask id="path-1-inside-1" fill="white">
<path d="M21.6631 704.743C21.6631 704.743 21.967 704.43 22.6933 703.82C34.2338 685.779 85.1061 407.221 9.51711 222.372C-181.349 -244.381 2561.92 168.583 2561.92 168.583L1999.63 317.716C1795.71 557.738 1437.86 446.489 1124.71 481.92C181.666 588.622 35.5896 692.993 22.6933 703.82C22.3027 704.431 21.9572 704.743 21.6631 704.743Z"/>
</mask>
<path d="M21.6631 704.743L-695.88 8.22849C-975.71 296.507 -1055.85 724.263 -899.346 1094.28C-742.844 1464.31 -380.094 1704.74 21.6631 1704.74L21.6631 704.743ZM1124.71 481.92L1012.28 -511.74L1012.28 -511.74L1124.71 481.92ZM1999.63 317.716L1743.27 -648.865C1546.1 -596.569 1369.63 -485.224 1237.55 -329.766L1999.63 317.716ZM2561.92 168.583L2818.28 1135.16C3276.51 1013.63 3586.43 587.049 3560.41 113.69C3534.39 -359.668 3179.57 -749.704 2710.78 -820.275L2561.92 168.583ZM9.51711 222.372L-916.084 600.872L9.51711 222.372ZM21.6631 704.743C739.206 1401.26 739.131 1401.33 739.056 1401.41C739.031 1401.44 738.955 1401.52 738.905 1401.57C738.805 1401.67 738.705 1401.77 738.604 1401.88C738.404 1402.08 738.204 1402.29 738.003 1402.49C737.603 1402.91 737.202 1403.32 736.802 1403.73C736.001 1404.54 735.202 1405.36 734.403 1406.17C732.806 1407.79 731.213 1409.4 729.623 1410.99C726.445 1414.18 723.282 1417.31 720.137 1420.38C713.847 1426.52 707.623 1432.43 701.483 1438.11C689.209 1449.48 677.222 1460.01 665.647 1469.73L-620.26 -62.085C-632.562 -51.7581 -645.064 -40.7729 -657.671 -29.0943C-663.978 -23.2514 -670.323 -17.2245 -676.693 -11.009C-679.878 -7.90085 -683.07 -4.74423 -686.268 -1.53859C-687.867 0.0642815 -689.468 1.67957 -691.07 3.30734C-691.871 4.12123 -692.672 4.93826 -693.474 5.75844C-693.875 6.16854 -694.276 6.57942 -694.677 6.99109C-694.877 7.19693 -695.078 7.40296 -695.278 7.6092C-695.378 7.71231 -695.479 7.81548 -695.579 7.91869C-695.629 7.97031 -695.704 8.04774 -695.729 8.07355C-695.805 8.15102 -695.88 8.22849 21.6631 704.743ZM665.665 1469.71C569.041 1550.83 485.931 1588.3 461.963 1598.59C433.707 1610.71 432.593 1608.13 477.813 1596.31C569.858 1572.25 790.285 1526.14 1237.14 1475.58L1012.28 -511.74C516.094 -455.598 191.959 -396.17 -28.0192 -338.665C-217.427 -289.151 -437.264 -215.712 -620.278 -62.07L665.665 1469.71ZM1237.14 1475.58C1237 1475.6 1239.03 1475.36 1243.68 1475.09C1248.35 1474.81 1255.02 1474.52 1264.21 1474.33C1283.66 1473.93 1307.95 1474.09 1343.85 1474.85C1398.96 1476.01 1527.34 1480.72 1646.05 1475.62C1893.33 1465 2387.01 1406.22 2761.72 965.198L1237.55 -329.766C1272.27 -370.63 1313.89 -407.9 1360.56 -439.1C1406.62 -469.894 1450.22 -489.865 1485.76 -502.509C1550.81 -525.649 1588.22 -523.743 1560.21 -522.539C1548.62 -522.041 1530.42 -521.777 1499.67 -522.217C1462.9 -522.742 1439.23 -523.589 1385.85 -524.711C1301.02 -526.493 1162.24 -528.707 1012.28 -511.74L1237.14 1475.58ZM2256 1284.3L2818.28 1135.16L2305.55 -797.997L1743.27 -648.865L2256 1284.3ZM2561.92 168.583C2710.78 -820.275 2710.69 -820.288 2710.59 -820.302C2710.55 -820.309 2710.44 -820.325 2710.35 -820.339C2710.16 -820.367 2709.94 -820.401 2709.67 -820.441C2709.13 -820.522 2708.43 -820.627 2707.56 -820.756C2705.83 -821.015 2703.44 -821.37 2700.42 -821.818C2694.38 -822.712 2685.79 -823.973 2674.85 -825.562C2652.97 -828.74 2621.61 -833.231 2582.16 -838.717C2503.36 -849.677 2391.86 -864.666 2258.94 -881.096C1995.12 -913.707 1638.2 -953.091 1281.81 -977.263C942.627 -1000.27 539.593 -1014.5 211.72 -976.183C73.69 -960.05 -195.562 -921.209 -442.612 -775.892C-578.06 -696.221 -790.831 -535.276 -913.656 -246.166C-1048.22 70.5705 -1007.09 378.331 -916.084 600.872L935.119 -156.127C1002.26 8.06892 1042.46 264.358 927.112 535.865C823.502 779.745 650.098 901.702 571.395 947.996C437.834 1026.56 351.585 1021.08 443.896 1010.29C576.704 994.773 823.7 996.261 1146.47 1018.15C1452.04 1038.88 1769.01 1073.56 2013.58 1103.8C2134.87 1118.79 2236.2 1132.42 2306.67 1142.22C2341.86 1147.11 2369.25 1151.04 2387.46 1153.68C2396.56 1155 2403.36 1156 2407.69 1156.64C2409.85 1156.96 2411.39 1157.19 2412.3 1157.33C2412.75 1157.4 2413.04 1157.44 2413.17 1157.46C2413.23 1157.47 2413.25 1157.47 2413.23 1157.47C2413.23 1157.47 2413.18 1157.46 2413.18 1157.46C2413.12 1157.45 2413.06 1157.44 2561.92 168.583ZM-916.084 600.872C-943.072 534.875 -948.18 489.187 -949.086 480.83C-950.352 469.16 -949.576 467.7 -949.993 476.11C-950.381 483.924 -951.209 488.31 -950.491 483.966C-950.252 482.516 -948.299 470.558 -943.417 450.381C-941.197 441.203 -935.856 419.81 -926.818 391.671C-922.328 377.691 -914.265 353.688 -902.262 324.214C-893.511 302.726 -867.2 239.212 -819.699 164.955L865.085 1242.69C942.905 1121.03 976.362 1006.42 977.374 1003.27C988.388 968.979 995.931 939.571 1000.5 920.688C1010.08 881.103 1017.31 842.979 1022.76 809.988C1033.9 742.565 1043.23 662.375 1047.55 575.188C1054.8 428.987 1055.67 138.682 935.119 -156.127L-916.084 600.872ZM-819.688 164.938C-795.825 127.636 -739.874 44.7445 -645.865 -39.6446C-564.868 -112.354 -334.347 -295.257 21.6631 -295.257V1704.74C377.967 1704.74 608.808 1521.68 690.149 1448.67C784.502 1363.97 840.821 1280.62 865.075 1242.7L-819.688 164.938Z" fill="#2F80ED" fill-opacity="0.1" mask="url(#path-1-inside-1)"/>
</svg>
