<svg width="483" height="321" viewBox="0 0 483 321" fill="none" xmlns="http://www.w3.org/2000/svg">
<path d="M6.59556 152.095C6.57334 151.267 5.88404 150.614 5.05589 150.636C4.22777 150.658 3.57443 151.348 3.59661 152.176L6.59556 152.095ZM135.235 264.704L135.538 263.234L135.235 264.704ZM466.541 125.82C466.623 124.996 466.021 124.261 465.197 124.179L451.763 122.841C450.939 122.759 450.204 123.361 450.122 124.185C450.04 125.009 450.641 125.744 451.466 125.826L463.407 127.016L462.217 138.957C462.135 139.781 462.737 140.516 463.561 140.598C464.386 140.68 465.12 140.078 465.203 139.254L466.541 125.82ZM5.09608 152.136C3.59661 152.176 3.59666 152.177 3.5967 152.179C3.59674 152.18 3.5968 152.182 3.59685 152.184C3.59699 152.188 3.59714 152.193 3.59737 152.2C3.59779 152.213 3.59844 152.232 3.59934 152.256C3.60118 152.303 3.60408 152.371 3.60851 152.459C3.61741 152.635 3.63245 152.891 3.65749 153.223C3.70752 153.886 3.79745 154.852 3.95749 156.084C4.27758 158.549 4.87846 162.082 6.00285 166.396C8.25155 175.023 12.5962 186.782 20.9814 199.366C37.7778 224.573 70.6701 252.92 134.932 266.173L135.538 263.234C71.9706 250.125 39.7937 222.188 23.4779 197.702C15.307 185.44 11.0849 173.999 8.90585 165.639C7.81634 161.459 7.23807 158.051 6.9325 155.698C6.77973 154.522 6.6952 153.61 6.64898 152.997C6.62589 152.691 6.61236 152.46 6.6047 152.308C6.60087 152.232 6.5985 152.176 6.59714 152.14C6.59644 152.123 6.59602 152.11 6.59578 152.102C6.59566 152.099 6.59558 152.096 6.59554 152.095C6.59553 152.094 6.59553 152.094 6.59552 152.094C6.59551 152.095 6.59556 152.095 5.09608 152.136ZM134.932 266.173C167.247 272.837 204.124 267.365 241.152 255.53C278.2 243.688 315.533 225.431 348.822 206.375C382.118 187.315 411.405 167.434 432.368 152.319C442.85 144.761 451.253 138.393 457.038 133.913C459.93 131.673 462.168 129.905 463.684 128.695C464.442 128.091 465.019 127.626 465.408 127.312C465.602 127.155 465.749 127.035 465.848 126.955C465.897 126.915 465.935 126.884 465.96 126.864C465.972 126.854 465.982 126.846 465.988 126.841C465.991 126.838 465.994 126.836 465.996 126.835C465.997 126.833 465.998 126.832 465.048 125.672C464.098 124.511 464.097 124.512 464.096 124.513C464.094 124.514 464.092 124.516 464.089 124.518C464.083 124.523 464.075 124.53 464.063 124.54C464.039 124.559 464.003 124.589 463.954 124.628C463.858 124.706 463.713 124.824 463.522 124.979C463.138 125.289 462.566 125.75 461.813 126.35C460.308 127.551 458.081 129.31 455.201 131.541C449.44 136.003 441.064 142.35 430.613 149.886C409.709 164.959 380.511 184.778 347.332 203.771C314.147 222.768 277.015 240.917 240.239 252.672C203.443 264.434 167.136 269.751 135.538 263.234L134.932 266.173Z" fill="#FA478A"/>
</svg>
