<svg width="410" height="34" viewBox="0 0 410 34" fill="none" xmlns="http://www.w3.org/2000/svg">
<path d="M27.5219 16.7601V16.8111C28.0304 17.0014 28.5056 17.2673 28.9307 17.5994C29.8179 18.3114 30.2088 19.2517 30.2088 20.4728C30.2088 22.4815 29.1135 23.9302 27.313 24.3884C26.7653 24.5411 26.1938 24.592 25.1215 24.592H19.6694V9.89697H24.4955C25.4872 9.89697 26.1654 9.94788 26.7653 10.0999C28.5136 10.5581 29.6612 11.7275 29.6612 13.5842C29.6612 14.5755 29.2963 15.4147 28.6956 15.974C28.3611 16.3085 27.9623 16.5756 27.5219 16.7601ZM22.6958 18.3114V22.1783H24.785C25.4111 22.1783 25.9848 22.1273 26.4027 21.7463C26.8205 21.3652 26.9996 20.8815 26.9996 20.2459C26.9996 19.763 26.869 19.3048 26.6079 18.9747C26.1647 18.4401 25.617 18.3136 24.6776 18.3136L22.6958 18.3114ZM22.6697 15.766H24.3649C24.8872 15.766 25.1477 15.766 25.4096 15.6933C26.1139 15.4903 26.5571 14.8802 26.5571 14.0409C26.5571 13.0511 26.0871 12.6148 25.4088 12.414C25.1215 12.3413 24.835 12.3122 24.2612 12.3122H22.6697V15.766ZM34.7485 24.5942V12.3631H30.3917V9.89697H42.4966L41.6355 12.3631H37.7749V24.5942H34.7485ZM43.436 24.5942V9.89697H53.245L52.3839 12.3631H46.4363V15.6183H48.862C50.8185 15.6183 51.8362 16.0758 52.5406 16.6605C53.0883 17.118 54.0277 18.1354 54.0277 20.1441C54.0277 22.1273 53.0621 23.2211 52.2533 23.7804C51.3146 24.416 50.323 24.5942 48.3144 24.5942H43.436ZM46.4363 22.1273H48.7053C49.5664 22.1273 50.0887 21.9244 50.4536 21.4663C50.6364 21.2372 50.8968 20.8306 50.8968 20.0677C50.8968 19.3048 50.6364 18.771 50.1141 18.3899C49.8014 18.1609 49.3843 18.0336 48.68 18.0336H46.4363V22.1273Z" fill="white"/>
<path d="M17.1564 6.22229H4.47846L3.56367 8.67171H16.2416L17.1564 6.22229Z" fill="white"/>
<path d="M15.7829 9.89697H3.10499L2.1902 12.3464H14.8689L15.7829 9.89697Z" fill="white"/>
<path d="M14.4134 13.5701H1.73541L0.820618 16.0195H13.4986L14.4134 13.5701Z" fill="white"/>
<path d="M66.4376 22.1338L71.01 17.4782L66.4653 12.8364L68.1141 11.1321L72.6728 15.7739L77.2314 11.1321L78.8802 12.8364L74.3355 17.4782L78.9079 22.1338L77.2591 23.838L72.6728 19.1686L68.0864 23.838L66.4376 22.1338Z" fill="white"/>
<path d="M98.9606 16.7004C99.5652 17.269 99.9867 17.8278 100.235 18.3735C100.483 18.9225 100.604 19.5499 100.604 20.2754C100.604 21.5923 100.104 22.7099 99.1011 23.6217C98.8593 23.8504 98.6273 24.0334 98.4018 24.1772C98.1731 24.3177 97.9116 24.4288 97.6502 24.5105C97.3888 24.5922 97.062 24.651 96.7352 24.6805C96.3757 24.7131 95.9836 24.7262 95.4934 24.7262H91.572C91.0165 24.7262 90.5916 24.6772 90.2975 24.5792C90.0034 24.4811 89.7093 24.2524 89.4479 23.9583C89.2976 23.7949 89.1701 23.6053 89.0655 23.4027C88.961 23.2001 88.8891 23.0106 88.8368 22.8145C88.8237 22.7165 88.8139 22.5923 88.8041 22.4322C88.7943 22.2786 88.7878 21.9616 88.7878 21.4845V12.2724C88.7943 11.5208 89.0492 10.9064 89.5132 10.4424C90.0034 9.9653 90.5982 9.72348 91.3432 9.72348H93.4543C93.8595 9.72348 94.1994 9.73328 94.4771 9.73982C94.7385 9.73982 94.9673 9.75289 95.196 9.7725C95.3921 9.78557 95.5555 9.80517 95.7189 9.82478C95.8823 9.84766 96.013 9.8738 96.1764 9.90321C97.1992 10.1581 98.0391 10.694 98.6927 11.511C99.3136 12.328 99.6403 13.2887 99.6403 14.3965C99.6403 14.8311 99.5848 15.2069 99.4867 15.5207C99.3887 15.8344 99.1992 16.2265 98.9312 16.6905L98.9606 16.7004ZM93.7026 15.5272H94.2909C94.6307 15.5272 94.8693 15.4782 95.0098 15.3965C95.1405 15.3115 95.2059 15.1677 95.2059 14.9553C95.2059 14.7429 95.1307 14.5959 94.9836 14.5044C94.8333 14.4129 94.5915 14.3736 94.2418 14.3736H93.719V15.5174L93.7026 15.5272ZM93.7026 20.1022H94.5327C94.9673 20.1022 95.2516 20.063 95.3987 19.9813C95.5457 19.8996 95.6078 19.7427 95.6078 19.5238C95.6078 19.295 95.5228 19.1316 95.3464 19.0336C95.1699 18.9356 94.9085 18.8964 94.5163 18.8964H93.732V20.1153L93.7026 20.1022ZM143.047 10.9326C143.243 10.5404 143.537 10.2235 143.93 9.9751C144.322 9.73655 144.747 9.60583 145.217 9.60583C145.511 9.60583 145.825 9.67119 146.142 9.78557C146.459 9.90648 146.72 10.0699 146.926 10.2757C147.142 10.4914 147.302 10.7136 147.416 10.9555C147.534 11.1973 147.626 11.5208 147.701 11.926L149.4 21.5858C149.433 21.7492 149.456 21.9028 149.465 22.0368C149.475 22.1707 149.498 22.2982 149.498 22.4289C149.498 22.7753 149.433 23.0923 149.302 23.3831C149.178 23.6772 149.008 23.9321 148.789 24.1347C148.573 24.3504 148.315 24.5203 148.018 24.6478C147.72 24.7752 147.403 24.8308 147.07 24.8308C146.443 24.8308 145.903 24.6576 145.452 24.3145C144.995 23.9681 144.734 23.5106 144.616 22.942L144.047 20.1316L143.083 22.7786C142.593 24.1445 141.743 24.8275 140.547 24.8275C139.926 24.8275 139.42 24.6641 139.011 24.3439C138.61 24.0171 138.279 23.504 138.025 22.808L137.044 20.1283L136.639 22.5139C136.518 23.2328 136.237 23.7949 135.796 24.2132C135.338 24.6184 134.789 24.8242 134.162 24.8242C133.41 24.8242 132.822 24.5726 132.365 24.0726C131.884 23.5694 131.646 22.9224 131.646 22.1283C131.646 22.0172 131.656 21.9159 131.662 21.8211C131.662 21.7231 131.682 21.625 131.695 21.5139L133.42 11.9391C133.541 11.2202 133.812 10.6483 134.237 10.2398C134.669 9.82478 135.204 9.61891 135.848 9.61891C136.371 9.61891 136.861 9.76923 137.319 10.0666C137.776 10.3607 138.113 10.7692 138.325 11.2757L140.547 16.2429L143.044 10.9162" fill="white"/>
<path d="M155.714 25.1046C154.919 25.1046 154.178 25.0065 153.491 24.8105C152.799 24.6209 152.197 24.353 151.688 24.0066C151.178 23.6602 150.782 23.255 150.498 22.7975C150.237 22.3465 150.073 21.8498 150.073 21.3073C150.073 20.9936 150.139 20.6995 150.269 20.4315C150.38 20.1603 150.531 19.925 150.74 19.7224C150.936 19.5198 151.181 19.3629 151.459 19.2388C151.737 19.1179 152.034 19.059 152.341 19.059C152.635 19.059 152.929 19.1146 153.21 19.229C153.485 19.3401 153.779 19.5231 154.093 19.778L154.746 20.2747C154.91 20.3923 155.047 20.4871 155.151 20.5557C155.25 20.6211 155.348 20.6636 155.413 20.6766C155.491 20.693 155.576 20.6995 155.665 20.6995C155.861 20.6995 156.024 20.6407 156.122 20.5198C156.243 20.4021 156.302 20.242 156.302 20.0492C156.302 19.7943 156.171 19.5852 155.91 19.4185C155.877 19.4054 155.844 19.3858 155.812 19.3629L155.648 19.2845L155.387 19.1538L154.929 18.9577L154.308 18.7453C154.112 18.68 153.916 18.6146 153.704 18.5329C151.527 17.7682 150.436 16.3434 150.436 14.2618C150.436 13.5233 150.567 12.8566 150.841 12.2586C151.116 11.6606 151.488 11.1476 151.969 10.7097C152.449 10.2718 153.021 9.93518 153.701 9.69662C154.387 9.4548 155.138 9.33716 155.949 9.33716C156.622 9.33716 157.256 9.42212 157.834 9.59859C158.423 9.76198 158.929 9.99727 159.364 10.2914C159.802 10.5855 160.141 10.9253 160.39 11.3207C160.635 11.7129 160.756 12.1475 160.756 12.6116C160.756 13.2096 160.566 13.6997 160.207 14.0821C159.847 14.4644 159.383 14.6572 158.815 14.6572C158.465 14.6572 158.145 14.5919 157.844 14.4612C157.55 14.337 157.191 14.118 156.766 13.8076C156.514 13.5952 156.308 13.4547 156.161 13.3828C156.008 13.3043 155.867 13.2651 155.736 13.2651C155.573 13.2651 155.429 13.3174 155.312 13.4285C155.204 13.5429 155.148 13.6834 155.148 13.8468C155.148 14.0756 155.246 14.252 155.442 14.386C155.651 14.5167 156.047 14.6801 156.632 14.8762C157.276 15.0722 157.883 15.301 158.452 15.5951C159.021 15.8696 159.478 16.1572 159.824 16.4578C160.289 16.85 160.655 17.3499 160.926 17.9708C161.187 18.5917 161.324 19.2649 161.324 19.9838C161.324 20.657 161.2 21.3073 160.955 21.9282C160.704 22.5491 160.357 23.0948 159.909 23.5621C159.396 24.0719 158.798 24.4445 158.119 24.6961C157.432 24.9477 156.632 25.0719 155.7 25.0719L155.714 25.1046ZM164.612 14.3043C164.174 14.3043 163.811 14.2553 163.517 14.1409C163.223 14.0429 162.971 13.8795 162.746 13.6507C162.288 13.1606 162.06 12.605 162.06 12.0168C162.06 11.5789 162.184 11.1672 162.429 10.775C162.681 10.3829 162.985 10.1116 163.344 9.94498C163.475 9.89269 163.599 9.84694 163.703 9.81427C163.801 9.78159 163.952 9.76525 164.128 9.74891C164.311 9.73584 164.547 9.71623 164.837 9.71623C165.132 9.70969 165.524 9.70316 166.014 9.70316H172.255C172.353 9.70316 172.435 9.71296 172.484 9.7195L172.68 9.75218C173.278 9.81753 173.759 10.0692 174.141 10.4874C174.523 10.9057 174.703 11.4122 174.703 11.9907C174.703 12.3272 174.625 12.6442 174.484 12.9645C174.337 13.2782 174.138 13.5527 173.883 13.7716C173.491 14.1311 172.853 14.3043 171.971 14.3043H170.876V21.7877C170.876 22.2321 170.844 22.6047 170.791 22.8824C170.739 23.1602 170.618 23.438 170.455 23.6896C170.226 24.0491 169.948 24.3268 169.595 24.5229C169.236 24.7124 168.844 24.8105 168.419 24.8105C167.994 24.8105 167.602 24.7222 167.252 24.5425C166.903 24.366 166.599 24.1111 166.37 23.7811C166.207 23.5262 166.096 23.2648 166.043 22.9968C165.978 22.7256 165.945 22.3334 165.945 21.8204V14.337H164.618L164.612 14.3043ZM178.337 22.7517C178.01 23.4902 177.657 24.0196 177.259 24.3399C176.866 24.6667 176.363 24.8235 175.765 24.8235C175.415 24.8235 175.095 24.7582 174.795 24.634C174.491 24.5033 174.239 24.3301 174.01 24.1046C173.798 23.8759 173.618 23.6144 173.497 23.3203C173.366 23.0164 173.308 22.6994 173.308 22.3498C173.308 21.9478 173.406 21.5001 173.618 21.0655L178.324 11.0985C178.526 10.641 178.834 10.275 179.239 10.0103C179.644 9.74891 180.088 9.61819 180.588 9.61819C181.098 9.61819 181.552 9.74891 181.961 10.0103C182.363 10.2881 182.68 10.6574 182.902 11.1377L187.618 21.2158C187.814 21.5818 187.912 21.9805 187.912 22.3988C187.912 22.7452 187.846 23.0622 187.703 23.3563C187.572 23.6504 187.392 23.9118 187.167 24.134C186.938 24.3628 186.676 24.5392 186.382 24.6667C186.088 24.7941 185.761 24.8562 185.412 24.8562C184.837 24.8562 184.366 24.7059 183.981 24.3987C183.595 24.0915 183.239 23.5491 182.892 22.7909H178.317L178.337 22.7517ZM199.797 20.8302C199.96 21.0851 200.081 21.3531 200.156 21.6276C200.232 21.9119 200.268 22.1766 200.268 22.4315C200.268 22.7746 200.202 23.0948 200.088 23.3857C199.957 23.6798 199.761 23.9347 199.539 24.1504C199.31 24.366 199.049 24.5425 198.754 24.6732C198.451 24.8039 198.134 24.8562 197.784 24.8562C196.879 24.8562 196.199 24.4739 195.732 23.7125L193.689 20.3139V22.3596C193.689 22.719 193.624 23.0458 193.5 23.3497C193.369 23.6438 193.189 23.9053 192.977 24.134C192.755 24.3628 192.5 24.536 192.209 24.6569C191.915 24.7876 191.601 24.8529 191.255 24.8529C190.889 24.8529 190.529 24.7745 190.176 24.6177C189.84 24.4543 189.555 24.2484 189.327 23.9641C188.935 23.4739 188.739 22.7681 188.739 21.8531V12.5887C188.739 12.0462 188.804 11.6083 188.925 11.2685C189.042 10.9319 189.252 10.6378 189.546 10.3861C189.83 10.1247 190.124 9.95478 190.428 9.86328C190.738 9.77505 191.193 9.73257 191.794 9.73257H193.863C194.477 9.73257 194.941 9.74891 195.281 9.78812C195.608 9.8208 195.941 9.87962 196.268 9.95152C196.846 10.1214 197.379 10.3665 197.859 10.6966C198.349 11.0561 198.758 11.4482 199.101 11.9057C199.447 12.3632 199.715 12.8697 199.911 13.4252C200.107 13.9808 200.205 14.5559 200.205 15.1572C200.205 15.8761 200.075 16.5297 199.836 17.1179C199.585 17.7061 199.183 18.327 198.607 18.9806L199.784 20.8433L199.797 20.8302ZM203.738 14.3402C203.303 14.3402 202.941 14.2912 202.647 14.1769C202.352 14.0788 202.098 13.9154 201.872 13.6867C201.382 13.1965 201.153 12.641 201.153 12.0527C201.153 11.6149 201.267 11.2031 201.513 10.811C201.761 10.4188 202.068 10.1476 202.428 9.98093C202.558 9.94825 202.689 9.88289 202.787 9.85021C202.892 9.81753 203.032 9.81753 203.212 9.78485C203.395 9.78485 203.637 9.75218 203.921 9.75218H211.372C211.47 9.75218 211.548 9.75218 211.6 9.76852L211.797 9.80119C212.391 9.88289 212.875 10.128 213.254 10.5528C213.623 10.9776 213.81 11.4678 213.81 12.056C213.81 12.3828 213.738 12.7096 213.594 13.0233C213.45 13.337 213.261 13.6115 213.006 13.8305C212.613 14.1899 211.983 14.3762 211.097 14.3762H209.996V21.8269C209.996 22.2713 209.963 22.6439 209.898 22.9216C209.833 23.2059 209.725 23.4772 209.561 23.7288C209.333 24.0883 209.038 24.366 208.689 24.5621C208.339 24.7582 207.947 24.8562 207.512 24.8562C207.088 24.8562 206.705 24.768 206.352 24.5882C206.006 24.4085 205.708 24.1536 205.47 23.8236C205.307 23.5687 205.192 23.3072 205.13 23.0393C205.065 22.7681 205.039 22.3759 205.039 21.8629V14.3468H203.731L203.738 14.3402ZM221.656 20.0982C222.195 20.0982 222.61 20.1407 222.897 20.2224C223.192 20.3074 223.469 20.4511 223.724 20.6603C224.247 21.1276 224.508 21.7125 224.508 22.4151C224.508 22.7615 224.443 23.0948 224.296 23.4151C224.156 23.7419 223.959 24.0033 223.708 24.232C223.577 24.3301 223.459 24.4281 223.332 24.4935C223.201 24.5588 223.071 24.6242 222.917 24.6569C222.767 24.6896 222.59 24.7222 222.388 24.7386C222.192 24.7516 221.946 24.7614 221.662 24.7614H217.806C217.237 24.7614 216.832 24.7451 216.597 24.7157C216.355 24.683 216.13 24.6373 215.921 24.5621C215.117 24.2353 214.646 23.6308 214.496 22.7648L214.45 22.5491L214.417 22.2877L214.408 21.9021V13.105C214.408 12.7913 214.408 12.5364 214.417 12.3403L214.45 11.8567C214.473 11.726 214.496 11.6214 214.525 11.5299L214.63 11.2162C214.741 10.9221 214.901 10.6802 215.12 10.4646C215.339 10.2489 215.577 10.0953 215.829 9.97439C215.966 9.90903 216.09 9.86982 216.189 9.84368C216.296 9.811 216.417 9.78812 216.564 9.77832C216.711 9.76852 216.891 9.74564 217.1 9.74564C217.313 9.73257 217.6 9.72603 217.96 9.72603H221.783C221.989 9.72603 222.152 9.73584 222.273 9.74891L222.567 9.81427L222.812 9.86655C223.335 9.99727 223.76 10.2587 224.064 10.6508C224.368 11.043 224.522 11.5005 224.522 12.0233C224.522 12.3828 224.456 12.7259 224.316 13.0462C224.175 13.3664 223.966 13.6344 223.711 13.8403C223.489 14.0363 223.234 14.1671 222.95 14.2586C222.656 14.3435 222.283 14.3827 221.819 14.3827H219.335V15.4284H221.296C221.917 15.4284 222.401 15.5918 222.76 15.9186C223.12 16.2454 223.299 16.6702 223.299 17.1931C223.299 17.7813 223.084 18.2551 222.646 18.6146C222.45 18.7551 222.254 18.8597 222.025 18.9087C221.816 18.961 221.512 18.9871 221.12 18.9871H219.345V20.1146H221.62L221.656 20.0982ZM236.292 20.8335C236.456 21.0949 236.577 21.3563 236.652 21.6406C236.727 21.9217 236.766 22.1864 236.766 22.4413C236.766 22.7877 236.701 23.1079 236.57 23.3987C236.446 23.6929 236.276 23.9477 236.047 24.1634C235.819 24.3922 235.557 24.5556 235.263 24.6863C234.959 24.817 234.642 24.8824 234.292 24.8824C233.391 24.8824 232.708 24.4902 232.243 23.7386L230.198 20.34V22.3792C230.198 22.7386 230.132 23.0654 230.002 23.3726C229.878 23.6667 229.708 23.9281 229.485 24.1569C229.263 24.3856 229.005 24.549 228.711 24.6797C228.417 24.8105 228.1 24.8758 227.757 24.8758C227.384 24.8758 227.025 24.7909 226.678 24.634C226.335 24.4706 226.051 24.2549 225.829 23.9706C225.437 23.4804 225.24 22.7746 225.24 21.8596V12.5887C225.24 12.0462 225.306 11.6083 225.423 11.2685C225.548 10.9319 225.75 10.6378 226.057 10.3861C226.352 10.1247 226.646 9.95478 226.95 9.86328C227.26 9.77505 227.714 9.73257 228.312 9.73257H230.371C230.992 9.73257 231.462 9.74891 231.793 9.78812C232.119 9.8208 232.456 9.87962 232.786 9.95152C233.374 10.1214 233.897 10.3665 234.371 10.6966C234.851 11.0561 235.263 11.4482 235.613 11.9057C235.953 12.3632 236.224 12.8697 236.417 13.4252C236.613 13.9808 236.711 14.5559 236.711 15.1572C236.711 15.8761 236.593 16.5297 236.345 17.1179C236.096 17.7061 235.691 18.327 235.116 18.9806L236.283 20.8433" fill="white"/>
<path fill-rule="evenodd" clip-rule="evenodd" d="M115.953 16.2553H115.323C115.244 15.7063 115.094 15.1769 114.898 14.677L115.447 14.3502C115.571 14.2848 115.62 14.1214 115.555 14.0234L114.81 12.7162C114.767 12.6019 114.614 12.5692 114.483 12.6509L113.927 12.9613C113.601 12.5561 113.208 12.164 112.784 11.8372L113.104 11.2816C113.169 11.1509 113.143 11.0039 113.032 10.9385L111.738 10.2033C111.627 10.1379 111.476 10.1902 111.411 10.3111L111.084 10.8666C110.588 10.6706 110.061 10.5235 109.516 10.4418V9.81111C109.516 9.66733 109.408 9.54968 109.28 9.54968H107.797C107.666 9.54968 107.568 9.66733 107.568 9.81111V10.4516C107.013 10.53 106.49 10.6738 105.99 10.8764L105.663 10.3209C105.598 10.1967 105.467 10.1477 105.336 10.2098L104.058 10.9549C103.947 11.0202 103.918 11.1673 103.987 11.2915L104.307 11.847C103.882 12.1868 103.49 12.5725 103.153 13.0038L102.598 12.6836C102.48 12.5855 102.326 12.6182 102.264 12.7489L101.545 14.0234C101.48 14.1214 101.532 14.2848 101.657 14.3502L102.206 14.677C102.009 15.1671 101.866 15.69 101.781 16.2455H101.127C100.987 16.2455 100.866 16.3436 100.866 16.4743V17.9579C100.866 18.0886 100.987 18.1866 101.127 18.1866H101.761C101.84 18.7422 101.983 19.265 102.186 19.7683L101.64 20.0951C101.509 20.1604 101.464 20.3042 101.529 20.4218L102.271 21.7028C102.336 21.8107 102.49 21.8434 102.611 21.7682L103.156 21.4578C103.5 21.8891 103.888 22.2747 104.317 22.6178L104.003 23.1603C103.938 23.291 103.944 23.4315 104.068 23.4969L105.343 24.2387C105.451 24.3041 105.604 24.2518 105.669 24.1309L105.98 23.5851C106.477 23.791 107.006 23.9348 107.558 24.01V24.6308C107.558 24.7812 107.663 24.8923 107.787 24.8923H109.287C109.418 24.8923 109.516 24.7812 109.516 24.6308V24.01C110.071 23.9381 110.604 23.791 111.107 23.5851L111.418 24.1309C111.49 24.2485 111.637 24.2943 111.744 24.2354L113.032 23.4838C113.146 23.4185 113.176 23.2649 113.104 23.1407L112.793 22.608C113.218 22.2715 113.61 21.8826 113.95 21.4512L114.496 21.7715C114.62 21.8466 114.774 21.814 114.836 21.7061L115.581 20.4186C115.646 20.3107 115.597 20.1571 115.473 20.0918L114.927 19.7781C115.13 19.2879 115.274 18.7552 115.352 18.203H115.983C116.114 18.203 116.244 18.1049 116.244 17.9742V16.5037C116.244 16.373 116.114 16.2749 115.983 16.2749L115.953 16.2553ZM111.947 18.3402L110.192 18.4317L110.643 20.131L109.173 19.1735L108.535 20.814L107.898 19.1735L106.428 20.131L106.875 18.4317L105.12 18.3337L106.483 17.2226L105.12 16.1181L106.875 16.02L106.424 14.3208L107.895 15.2815L108.532 13.641L109.153 15.2815L110.624 14.324L110.166 16.0233L111.914 16.1213L110.548 17.2324L111.911 18.3435L111.947 18.3402Z" fill="white"/>
<path fill-rule="evenodd" clip-rule="evenodd" d="M131.139 18.2099L130.531 18.0465C130.597 17.5106 130.597 16.9616 130.531 16.4126L131.152 16.2492C131.283 16.21 131.381 16.0793 131.348 15.9551L130.956 14.5238C130.923 14.3996 130.793 14.3277 130.662 14.3669L130.041 14.5303C129.829 14.0205 129.551 13.5499 129.224 13.1153L129.675 12.6905C129.773 12.5925 129.786 12.4291 129.698 12.3506L128.652 11.3049C128.561 11.2069 128.404 11.22 128.303 11.3213L127.858 11.7722C127.42 11.4454 126.943 11.1742 126.443 10.9553L126.607 10.3344C126.646 10.1906 126.574 10.0533 126.456 10.0207L125.005 9.61545C124.875 9.58277 124.744 9.671 124.711 9.81152L124.548 10.4324C124.012 10.3671 123.469 10.3671 122.914 10.4324L122.75 9.81152C122.718 9.671 122.587 9.58277 122.456 9.61545L121.019 10.0076C120.894 10.0403 120.822 10.1775 120.862 10.3148L121.025 10.9357C120.519 11.1513 120.045 11.4258 119.613 11.7526L119.156 11.2821C119.058 11.184 118.894 11.1742 118.809 11.2657L117.764 12.3114C117.666 12.4029 117.679 12.5598 117.78 12.6611L118.205 13.1121C117.878 13.5499 117.6 14.0271 117.388 14.527L116.767 14.3636C116.636 14.3244 116.493 14.3963 116.46 14.514L116.074 15.9518C116.042 16.0499 116.123 16.1806 116.26 16.2459L116.881 16.4093C116.816 16.9322 116.816 17.4877 116.881 18.0433L116.27 18.2066C116.14 18.2393 116.051 18.37 116.084 18.4681L116.476 19.9059C116.509 20.0301 116.649 20.102 116.787 20.0628L117.398 19.8994C117.617 20.4124 117.888 20.8863 118.215 21.3176L117.783 21.7849C117.679 21.883 117.669 22.0464 117.76 22.1313L118.806 23.1869C118.898 23.2751 119.055 23.2653 119.156 23.164L119.6 22.7196C120.038 23.0463 120.515 23.3241 121.019 23.5431L120.855 24.1476C120.822 24.2849 120.888 24.4221 121.012 24.4548L122.45 24.8469C122.567 24.8796 122.698 24.8143 122.734 24.6509L122.898 24.0626C123.433 24.128 123.982 24.128 124.538 24.0626L124.701 24.6835C124.734 24.8208 124.865 24.9123 124.986 24.8796L126.424 24.4875C126.544 24.4548 126.613 24.3241 126.577 24.1803L126.446 23.579C126.959 23.3601 127.427 23.0823 127.865 22.762L128.306 23.1967C128.404 23.2947 128.567 23.3078 128.652 23.2195L129.698 22.1607C129.796 22.0758 129.786 21.9189 129.685 21.8176L129.237 21.3601C129.564 20.9255 129.835 20.4451 130.054 19.9451L130.659 20.1085C130.796 20.1412 130.933 20.0759 130.966 19.9517L131.338 18.5138C131.371 18.3831 131.286 18.2524 131.149 18.2197L131.139 18.2099ZM126.574 19.4844L124.901 18.9452L124.714 20.6935L123.701 19.272L122.525 20.5791V18.8145L120.809 19.1805L121.839 17.7589L120.237 17.04L121.904 16.4943L121.022 14.9682L122.688 15.5107L122.878 13.7624L123.914 15.1675L125.09 13.8604L125.1 15.625L126.819 15.2656L125.79 16.6708L127.391 17.3897L125.714 17.9354L126.597 19.4582L126.574 19.4844Z" fill="white"/>
<line x1="250.998" y1="6.13489" x2="250.998" y2="28.3018" stroke="white" stroke-width="2"/>
<path d="M265.09 23.0195V8.89953H273.43V10.6195H267.07V14.5595H270.17C271.437 14.5595 272.47 14.9395 273.27 15.6995C274.07 16.4462 274.47 17.4862 274.47 18.8195C274.47 20.0729 274.077 21.0862 273.29 21.8595C272.517 22.6329 271.51 23.0195 270.27 23.0195H265.09ZM267.07 21.2995H269.95C270.737 21.2995 271.35 21.0795 271.79 20.6395C272.243 20.1995 272.47 19.5929 272.47 18.8195C272.47 18.0462 272.237 17.4329 271.77 16.9795C271.317 16.5129 270.697 16.2795 269.91 16.2795H267.07V21.2995ZM285.999 23.0195V12.8995H287.939V23.0195H285.999ZM276.839 23.0195V12.8995H278.779V16.5595H280.759C281.879 16.5595 282.773 16.8329 283.439 17.3795C284.106 17.9129 284.439 18.7262 284.439 19.8195C284.439 20.8062 284.126 21.5862 283.499 22.1595C282.886 22.7329 281.966 23.0195 280.739 23.0195H276.839ZM278.779 21.6195H280.479C281.146 21.6195 281.646 21.4595 281.979 21.1395C282.313 20.8062 282.479 20.3595 282.479 19.7995C282.479 19.2395 282.313 18.7929 281.979 18.4595C281.646 18.1262 281.139 17.9595 280.459 17.9595H278.779V21.6195ZM290.281 17.9595C290.281 16.4529 290.788 15.1929 291.801 14.1795C292.828 13.1662 294.128 12.6595 295.701 12.6595C297.301 12.6595 298.568 13.1529 299.501 14.1395L298.581 15.4995C297.808 14.7262 296.874 14.3395 295.781 14.3395C294.768 14.3395 293.928 14.6862 293.261 15.3795C292.594 16.0595 292.261 16.9129 292.261 17.9395C292.261 18.9795 292.594 19.8462 293.261 20.5395C293.941 21.2329 294.801 21.5795 295.841 21.5795C296.401 21.5795 296.961 21.4595 297.521 21.2195C298.094 20.9662 298.574 20.6329 298.961 20.2195L299.741 21.6395C299.274 22.1329 298.681 22.5262 297.961 22.8195C297.241 23.1129 296.488 23.2595 295.701 23.2595C294.114 23.2595 292.814 22.7595 291.801 21.7595C290.788 20.7595 290.281 19.4929 290.281 17.9595ZM304.279 23.0195V14.5595H300.759V12.8995H309.739V14.5595H306.199V23.0195H304.279ZM311.644 27.0195V12.8995H313.444V13.7995L313.384 14.5595H313.424C313.744 13.9595 314.204 13.4929 314.804 13.1595C315.404 12.8262 316.077 12.6595 316.824 12.6595C318.184 12.6595 319.264 13.1462 320.064 14.1195C320.864 15.0929 321.264 16.3729 321.264 17.9595C321.264 19.5595 320.837 20.8462 319.984 21.8195C319.131 22.7795 318.031 23.2595 316.684 23.2595C315.337 23.2595 314.291 22.6862 313.544 21.5395H313.504C313.557 21.7795 313.584 22.0729 313.584 22.4195V27.0195H311.644ZM313.524 17.9995C313.524 18.9595 313.777 19.7995 314.284 20.5195C314.804 21.2262 315.504 21.5795 316.384 21.5795C317.211 21.5795 317.904 21.2595 318.464 20.6195C319.024 19.9662 319.304 19.0862 319.304 17.9795C319.304 16.8862 319.037 16.0129 318.504 15.3595C317.984 14.6929 317.297 14.3595 316.444 14.3595C315.617 14.3595 314.924 14.6662 314.364 15.2795C313.804 15.8929 313.524 16.7995 313.524 17.9995ZM332.816 23.0195V12.8995H334.756V23.0195H332.816ZM323.656 23.0195V12.8995H325.596V16.5595H327.576C328.696 16.5595 329.589 16.8329 330.256 17.3795C330.922 17.9129 331.256 18.7262 331.256 19.8195C331.256 20.8062 330.942 21.5862 330.316 22.1595C329.702 22.7329 328.782 23.0195 327.556 23.0195H323.656ZM325.596 21.6195H327.296C327.962 21.6195 328.462 21.4595 328.796 21.1395C329.129 20.8062 329.296 20.3595 329.296 19.7995C329.296 19.2395 329.129 18.7929 328.796 18.4595C328.462 18.1262 327.956 17.9595 327.276 17.9595H325.596V21.6195ZM342.217 11.7395C341.404 11.7395 340.704 11.5129 340.117 11.0595C339.544 10.5929 339.257 9.9662 339.257 9.17953V8.87953H340.817V9.15953C340.817 9.57286 340.957 9.89953 341.237 10.1395C341.517 10.3662 341.844 10.4795 342.217 10.4795C342.604 10.4795 342.937 10.3662 343.217 10.1395C343.497 9.89953 343.637 9.5662 343.637 9.13953V8.87953H345.177V9.17953C345.177 9.9662 344.891 10.5929 344.317 11.0595C343.744 11.5129 343.044 11.7395 342.217 11.7395ZM337.757 23.0195V12.8995H339.617V18.9395C339.617 19.6462 339.597 20.0995 339.557 20.2995H339.597C339.664 20.1395 339.964 19.6862 340.497 18.9395L344.857 12.8995H346.737V23.0195H344.857V16.9795C344.857 16.7929 344.864 16.5329 344.877 16.1995C344.904 15.8529 344.917 15.6662 344.917 15.6395H344.877C344.864 15.6662 344.571 16.1129 343.997 16.9795L339.617 23.0195H337.757ZM354.05 17.9595C354.05 16.4529 354.557 15.1929 355.57 14.1795C356.597 13.1662 357.897 12.6595 359.47 12.6595C361.07 12.6595 362.337 13.1529 363.27 14.1395L362.35 15.4995C361.577 14.7262 360.644 14.3395 359.55 14.3395C358.537 14.3395 357.697 14.6862 357.03 15.3795C356.364 16.0595 356.03 16.9129 356.03 17.9395C356.03 18.9795 356.364 19.8462 357.03 20.5395C357.71 21.2329 358.57 21.5795 359.61 21.5795C360.17 21.5795 360.73 21.4595 361.29 21.2195C361.864 20.9662 362.344 20.6329 362.73 20.2195L363.51 21.6395C363.044 22.1329 362.45 22.5262 361.73 22.8195C361.01 23.1129 360.257 23.2595 359.47 23.2595C357.884 23.2595 356.584 22.7595 355.57 21.7595C354.557 20.7595 354.05 19.4929 354.05 17.9595ZM368.049 23.0195V14.5595H364.529V12.8995H373.509V14.5595H369.969V23.0195H368.049ZM374.476 20.2595C374.476 19.5129 374.683 18.8862 375.096 18.3795C375.509 17.8729 376.056 17.5129 376.736 17.2995C377.429 17.0729 378.069 16.9195 378.656 16.8395C379.243 16.7595 379.863 16.7195 380.516 16.7195H381.036V16.5195C381.036 15.0395 380.296 14.2995 378.816 14.2995C377.843 14.2995 376.896 14.6262 375.976 15.2795L375.196 13.8595C375.609 13.5129 376.169 13.2262 376.876 12.9995C377.583 12.7729 378.283 12.6595 378.976 12.6595C380.256 12.6595 381.243 12.9995 381.936 13.6795C382.629 14.3595 382.976 15.3395 382.976 16.6195V23.0195H381.156V21.9995L381.216 21.1995H381.176C380.869 21.7995 380.416 22.2929 379.816 22.6795C379.229 23.0662 378.576 23.2595 377.856 23.2595C376.936 23.2595 376.143 22.9862 375.476 22.4395C374.809 21.8929 374.476 21.1662 374.476 20.2595ZM376.416 20.0995C376.416 20.5395 376.583 20.9195 376.916 21.2395C377.249 21.5595 377.716 21.7195 378.316 21.7195C379.116 21.7195 379.769 21.3862 380.276 20.7195C380.783 20.0529 381.036 19.3129 381.036 18.4995V18.1195H380.536C377.789 18.1195 376.416 18.7795 376.416 20.0995ZM385.843 27.0195V12.8995H387.643V13.7995L387.583 14.5595H387.623C387.943 13.9595 388.403 13.4929 389.003 13.1595C389.603 12.8262 390.277 12.6595 391.023 12.6595C392.383 12.6595 393.463 13.1462 394.263 14.1195C395.063 15.0929 395.463 16.3729 395.463 17.9595C395.463 19.5595 395.037 20.8462 394.183 21.8195C393.33 22.7795 392.23 23.2595 390.883 23.2595C389.537 23.2595 388.49 22.6862 387.743 21.5395H387.703C387.757 21.7795 387.783 22.0729 387.783 22.4195V27.0195H385.843ZM387.723 17.9995C387.723 18.9595 387.977 19.7995 388.483 20.5195C389.003 21.2262 389.703 21.5795 390.583 21.5795C391.41 21.5795 392.103 21.2595 392.663 20.6195C393.223 19.9662 393.503 19.0862 393.503 17.9795C393.503 16.8862 393.237 16.0129 392.703 15.3595C392.183 14.6929 391.497 14.3595 390.643 14.3595C389.817 14.3595 389.123 14.6662 388.563 15.2795C388.003 15.8929 387.723 16.7995 387.723 17.9995ZM400.1 23.0195V14.5595H396.58V12.8995H405.56V14.5595H402.02V23.0195H400.1Z" fill="white"/>
</svg>
